<svg xmlns="http://www.w3.org/2000/svg" width="1000" height="450"><rect width="100%" height="100%" style="fill: white;"></rect><text transform="translate(150,0)" x="50" y="50" font-size="24px">Teste: Criar Post</text><g transform="translate(100,100)"></g><g transform="translate(50,410)" fill="none" font-size="10" font-family="sans-serif" text-anchor="middle"><path class="domain" stroke="currentColor" d="M0.5,6V0.5H990.5V6"></path><g class="tick" opacity="1" transform="translate(203.8235294117647,0)"><line stroke="currentColor" y2="6"></line><text fill="currentColor" y="9" dy="0.71em">Bookshelf</text></g><g class="tick" opacity="1" transform="translate(494.99999999999994,0)"><line stroke="currentColor" y2="6"></line><text fill="currentColor" y="9" dy="0.71em">Objection.js</text></g><g class="tick" opacity="1" transform="translate(786.1764705882352,0)"><line stroke="currentColor" y2="6"></line><text fill="currentColor" y="9" dy="0.71em">Sequelize</text></g><text y="30" x="490" text-anchor="end" stroke="black" font-size="14px">ORMs</text></g><g transform="translate(100,0)" fill="none" font-size="10" font-family="sans-serif" text-anchor="end"><path class="domain" stroke="currentColor" d="M-6,410.5H0.5V0.5H-6"></path><g class="tick" opacity="1" transform="translate(0,410.5)"><line stroke="currentColor" x2="-6"></line><text fill="currentColor" x="-9" dy="0.32em">0ms</text></g><g class="tick" opacity="1" transform="translate(0,333.5093215055621)"><line stroke="currentColor" x2="-6"></line><text fill="currentColor" x="-9" dy="0.32em">5ms</text></g><g class="tick" opacity="1" transform="translate(0,256.5186430111242)"><line stroke="currentColor" x2="-6"></line><text fill="currentColor" x="-9" dy="0.32em">10ms</text></g><g class="tick" opacity="1" transform="translate(0,179.52796451668632)"><line stroke="currentColor" x2="-6"></line><text fill="currentColor" x="-9" dy="0.32em">15ms</text></g><g class="tick" opacity="1" transform="translate(0,102.53728602224842)"><line stroke="currentColor" x2="-6"></line><text fill="currentColor" x="-9" dy="0.32em">20ms</text></g><g class="tick" opacity="1" transform="translate(0,25.54660752781055)"><line stroke="currentColor" x2="-6"></line><text fill="currentColor" x="-9" dy="0.32em">25ms</text></g><text transform="rotate(-90)" y="150" x="-180" dy="-13.8em" text-anchor="end" stroke="black" font-size="15px">Time</text></g><rect transform="translate(50,0)" class="bar" x="116.47058823529414" y="219.91001479723283" width="174.70588235294113" height="190.08998520276717" style="fill: orange;"></rect><rect transform="translate(50,0)" class="bar" x="407.6470588235294" y="94.61538461538464" width="174.70588235294113" height="315.38461538461536" style="fill: orange;"></rect><rect transform="translate(50,0)" class="bar" x="698.8235294117646" y="158.99498997243361" width="174.70588235294113" height="251.00501002756639" style="fill: orange;"></rect></svg>