<svg xmlns="http://www.w3.org/2000/svg" width="1000" height="450"><rect width="100%" height="100%" style="fill: white;"></rect><text transform="translate(150,0)" x="50" y="50" font-size="24px">Teste: Obter todos os Posts</text><g transform="translate(100,100)"></g><g transform="translate(50,410)" fill="none" font-size="10" font-family="sans-serif" text-anchor="middle"><path class="domain" stroke="currentColor" d="M0.5,6V0.5H990.5V6"></path><g class="tick" opacity="1" transform="translate(203.8235294117647,0)"><line stroke="currentColor" y2="6"></line><text fill="currentColor" y="9" dy="0.71em">Bookshelf</text></g><g class="tick" opacity="1" transform="translate(494.99999999999994,0)"><line stroke="currentColor" y2="6"></line><text fill="currentColor" y="9" dy="0.71em">Objection.js</text></g><g class="tick" opacity="1" transform="translate(786.1764705882352,0)"><line stroke="currentColor" y2="6"></line><text fill="currentColor" y="9" dy="0.71em">Sequelize</text></g><text y="30" x="490" text-anchor="end" stroke="black" font-size="14px">ORMs</text></g><g transform="translate(100,0)" fill="none" font-size="10" font-family="sans-serif" text-anchor="end"><path class="domain" stroke="currentColor" d="M-6,410.5H0.5V0.5H-6"></path><g class="tick" opacity="1" transform="translate(0,410.5)"><line stroke="currentColor" x2="-6"></line><text fill="currentColor" x="-9" dy="0.32em">0ms</text></g><g class="tick" opacity="1" transform="translate(0,344.5475501077759)"><line stroke="currentColor" x2="-6"></line><text fill="currentColor" x="-9" dy="0.32em">1ms</text></g><g class="tick" opacity="1" transform="translate(0,278.5951002155519)"><line stroke="currentColor" x2="-6"></line><text fill="currentColor" x="-9" dy="0.32em">2ms</text></g><g class="tick" opacity="1" transform="translate(0,212.64265032332787)"><line stroke="currentColor" x2="-6"></line><text fill="currentColor" x="-9" dy="0.32em">3ms</text></g><g class="tick" opacity="1" transform="translate(0,146.6902004311038)"><line stroke="currentColor" x2="-6"></line><text fill="currentColor" x="-9" dy="0.32em">4ms</text></g><g class="tick" opacity="1" transform="translate(0,80.73775053887977)"><line stroke="currentColor" x2="-6"></line><text fill="currentColor" x="-9" dy="0.32em">5ms</text></g><g class="tick" opacity="1" transform="translate(0,14.78530064665569)"><line stroke="currentColor" x2="-6"></line><text fill="currentColor" x="-9" dy="0.32em">6ms</text></g><text transform="rotate(-90)" y="150" x="-180" dy="-13.8em" text-anchor="end" stroke="black" font-size="15px">Time</text></g><rect transform="translate(50,0)" class="bar" x="116.47058823529414" y="220.4526590097481" width="174.70588235294113" height="189.5473409902519" style="fill: orange;"></rect><rect transform="translate(50,0)" class="bar" x="407.6470588235294" y="94.6153846153846" width="174.70588235294113" height="315.3846153846154" style="fill: orange;"></rect><rect transform="translate(50,0)" class="bar" x="698.8235294117646" y="236.0833896342052" width="174.70588235294113" height="173.9166103657948" style="fill: orange;"></rect></svg>