<svg xmlns="http://www.w3.org/2000/svg" width="1000" height="450"><rect width="100%" height="100%" style="fill: white;"></rect><text transform="translate(150,0)" x="50" y="50" font-size="24px">Teste: Carregar posts de um usuário (eager loading)</text><g transform="translate(100,100)"></g><g transform="translate(50,410)" fill="none" font-size="10" font-family="sans-serif" text-anchor="middle"><path class="domain" stroke="currentColor" d="M0.5,6V0.5H990.5V6"></path><g class="tick" opacity="1" transform="translate(203.8235294117647,0)"><line stroke="currentColor" y2="6"></line><text fill="currentColor" y="9" dy="0.71em">Bookshelf</text></g><g class="tick" opacity="1" transform="translate(494.99999999999994,0)"><line stroke="currentColor" y2="6"></line><text fill="currentColor" y="9" dy="0.71em">Objection.js</text></g><g class="tick" opacity="1" transform="translate(786.1764705882352,0)"><line stroke="currentColor" y2="6"></line><text fill="currentColor" y="9" dy="0.71em">Sequelize</text></g><text y="30" x="490" text-anchor="end" stroke="black" font-size="14px">ORMs</text></g><g transform="translate(100,0)" fill="none" font-size="10" font-family="sans-serif" text-anchor="end"><path class="domain" stroke="currentColor" d="M-6,410.5H0.5V0.5H-6"></path><g class="tick" opacity="1" transform="translate(0,410.5)"><line stroke="currentColor" x2="-6"></line><text fill="currentColor" x="-9" dy="0.32em">0ms</text></g><g class="tick" opacity="1" transform="translate(0,330.347358090725)"><line stroke="currentColor" x2="-6"></line><text fill="currentColor" x="-9" dy="0.32em">5ms</text></g><g class="tick" opacity="1" transform="translate(0,250.19471618144993)"><line stroke="currentColor" x2="-6"></line><text fill="currentColor" x="-9" dy="0.32em">10ms</text></g><g class="tick" opacity="1" transform="translate(0,170.04207427217491)"><line stroke="currentColor" x2="-6"></line><text fill="currentColor" x="-9" dy="0.32em">15ms</text></g><g class="tick" opacity="1" transform="translate(0,89.8894323628999)"><line stroke="currentColor" x2="-6"></line><text fill="currentColor" x="-9" dy="0.32em">20ms</text></g><g class="tick" opacity="1" transform="translate(0,9.736790453624863)"><line stroke="currentColor" x2="-6"></line><text fill="currentColor" x="-9" dy="0.32em">25ms</text></g><text transform="rotate(-90)" y="150" x="-180" dy="-13.8em" text-anchor="end" stroke="black" font-size="15px">Time</text></g><rect transform="translate(50,0)" class="bar" x="116.47058823529414" y="97.51691025250041" width="174.70588235294113" height="312.4830897474996" style="fill: orange;"></rect><rect transform="translate(50,0)" class="bar" x="407.6470588235294" y="94.61538461538464" width="174.70588235294113" height="315.38461538461536" style="fill: orange;"></rect><rect transform="translate(50,0)" class="bar" x="698.8235294117646" y="164.68482417247284" width="174.70588235294113" height="245.31517582752716" style="fill: orange;"></rect></svg>